<svg width="128" height="128" viewBox="0 0 128 128" fill="none" xmlns="http://www.w3.org/2000/svg">
  <rect width="128" height="128" rx="28" fill="#10120E"/>
  <circle cx="92" cy="28" r="28" fill="#E8FF48" fill-opacity="0.18"/>
  <path d="M29 23h20v82H29V23Z" fill="#E8FF48"/>
  <path d="M44 23h25c20 0 30 9 30 23 0 10-5 17-15 21 13 4 21 13 21 27 0 17-12 27-34 27H44V101h25c9 0 14-4 14-11s-5-11-15-11H44V61h21c8 0 13-4 13-10s-5-10-14-10H44V23Z" fill="#E8FF48"/>
  <path d="M28 101h72" stroke="#E8FF48" stroke-width="4" stroke-linecap="round"/>
  <circle cx="36" cy="80" r="7" fill="#FFFDF7"/>
  <path d="M43 80l35 5M56 82l-8 17M78 85l25 12M78 85l25-2" stroke="#FFFDF7" stroke-width="6" stroke-linecap="round" stroke-linejoin="round"/>
  <path d="M101 83l12-4M102 97l13 5" stroke="#E8FF48" stroke-width="5" stroke-linecap="round"/>
</svg>